HIERARCHY
ROOT Hips
{
	OFFSET 0.00000 0.00000 0.00000
	CHANNELS 6 Xposition Yposition Zposition Zrotation Yrotation Xrotation 
	JOINT LHipJoint
	{
		OFFSET 0 0 0
		CHANNELS 3 Zrotation Yrotation Xrotation
		JOINT LeftUpLeg
		{
			OFFSET 3.13874 -1.57224 1.49786
			CHANNELS 3 Zrotation Yrotation Xrotation
			JOINT LeftLeg
			{
				OFFSET 2.10955 -5.79594 0.00000
				CHANNELS 3 Zrotation Yrotation Xrotation
				JOINT LeftFoot
				{
					OFFSET 2.41843 -6.64458 0.00000
					CHANNELS 3 Zrotation Yrotation Xrotation
					JOINT LeftToeBase
					{
						OFFSET 0.04713 -0.12948 1.66229
						CHANNELS 3 Zrotation Yrotation Xrotation
						End Site
						{
							OFFSET 0.00000 -0.00000 0.85167
						}
					}
				}
			}
		}
	}
	JOINT RHipJoint
	{
		OFFSET 0 0 0
		CHANNELS 3 Zrotation Yrotation Xrotation
		JOINT RightUpLeg
		{
			OFFSET -3.13988 -1.57224 1.49786
			CHANNELS 3 Zrotation Yrotation Xrotation
			JOINT RightLeg
			{
				OFFSET -2.15006 -5.90725 0.00000
				CHANNELS 3 Zrotation Yrotation Xrotation
				JOINT RightFoot
				{
					OFFSET -2.34496 -6.44273 0.00000
					CHANNELS 3 Zrotation Yrotation Xrotation
					JOINT RightToeBase
					{
						OFFSET -0.08699 -0.23900 1.55223
						CHANNELS 3 Zrotation Yrotation Xrotation
						End Site
						{
							OFFSET -0.00000 -0.00000 0.80281
						}
					}
				}
			}
		}
	}
	JOINT LowerBack
	{
		OFFSET 0 0 0
		CHANNELS 3 Zrotation Yrotation Xrotation
		JOINT Spine
		{
			OFFSET 0.01292 1.96517 -0.16495
			CHANNELS 3 Zrotation Yrotation Xrotation
			JOINT Spine1
			{
				OFFSET 0.02122 1.88666 0.19706
				CHANNELS 3 Zrotation Yrotation Xrotation
				JOINT Neck
				{
					OFFSET 0 0 0
					CHANNELS 3 Zrotation Yrotation Xrotation
					JOINT Neck1
					{
						OFFSET -0.01683 1.81591 0.07903
						CHANNELS 3 Zrotation Yrotation Xrotation
						JOINT Head
						{
							OFFSET 0.00815 1.74013 -0.47700
							CHANNELS 3 Zrotation Yrotation Xrotation
							End Site
							{
								OFFSET -0.00204 1.83225 -0.16933
							}
						}
					}
				}
				JOINT LeftShoulder
				{
					OFFSET 0 0 0
					CHANNELS 3 Zrotation Yrotation Xrotation
					JOINT LeftArm
					{
						OFFSET 3.38482 1.41533 0.19802
						CHANNELS 3 Zrotation Yrotation Xrotation
						JOINT LeftForeArm
						{
							OFFSET 4.32712 -0.00000 0.00000
							CHANNELS 3 Zrotation Yrotation Xrotation
							JOINT LeftHand
							{
								OFFSET 3.28587 -0.00000 -0.00000
								CHANNELS 3 Zrotation Yrotation Xrotation
								JOINT LeftFingerBase
								{
									OFFSET 0 0 0
									CHANNELS 3 Zrotation Yrotation Xrotation
									JOINT LeftHandIndex1
									{
										OFFSET 0.43316 -0.00000 -0.00000
										CHANNELS 3 Zrotation Yrotation Xrotation
										End Site
										{
											OFFSET 0.34922 -0.00000 -0.00000
										}
									}
								}
								JOINT LThumb
								{
									OFFSET 0 0 0
									CHANNELS 3 Zrotation Yrotation Xrotation
									End Site
									{
										OFFSET 0.35456 -0.00000 0.35456
									}
								}
							}
						}
					}
				}
				JOINT RightShoulder
				{
					OFFSET 0 0 0
					CHANNELS 3 Zrotation Yrotation Xrotation
					JOINT RightArm
					{
						OFFSET -3.09725 1.62858 -0.14144
						CHANNELS 3 Zrotation Yrotation Xrotation
						JOINT RightForeArm
						{
							OFFSET -4.29104 -0.00000 0.00000
							CHANNELS 3 Zrotation Yrotation Xrotation
							JOINT RightHand
							{
								OFFSET -3.22720 -0.00000 -0.00000
								CHANNELS 3 Zrotation Yrotation Xrotation
								JOINT RightFingerBase
								{
									OFFSET 0 0 0
									CHANNELS 3 Zrotation Yrotation Xrotation
									JOINT RightHandIndex1
									{
										OFFSET -0.54362 -0.00000 -0.00000
										CHANNELS 3 Zrotation Yrotation Xrotation
										End Site
										{
											OFFSET -0.43828 -0.00000 -0.00000
										}
									}
								}
								JOINT RThumb
								{
									OFFSET 0 0 0
									CHANNELS 3 Zrotation Yrotation Xrotation
									End Site
									{
										OFFSET -0.44497 -0.00000 0.44497
									}
								}
							}
						}
					}
				}
			}
		}
	}
}
MOTION
Frames: 6
Frame Time: 0.0238095
0.00 0.00 0.00 536.0330 43.9031 189.4290 0.0000 0.0000 0.0000 -34.0379 -17.1406 2.8883 0.0745 1.7606 4.8446 4.4267 10.6032 -44.2006 9.7724 -17.2799 -58.7250 0.0000 0.0000 0.0000 23.4686 12.3117 -31.6697 -0.7805 -5.6405 15.7449 -1.4930 -13.0149 -30.9939 -0.1480 -2.4789 6.8312 -18.1532 -3.8780 17.9623 11.1873 -8.0237 -12.7139 28.4932 1.5552 -21.5269 -2.3543 -0.3726 -9.1374 -5.9658 7.4623 44.6107 -0.6004 3.3912 18.7601 -0.0000 0.0000 0.0000 -108.3282 23.6383 -5.3545 10.9561 -18.2210 -1.7622 -0.0000 -0.0000 35.8771 20.8369 27.5661 9.9891 -7.1250 0.0000 -0.0000 -10.8295 58.8379 -3.6904 -0.0000 0.0000 0.0000 48.7895 -7.8663 79.4867 -26.1958 37.4014 -9.0063 0.0000 -0.0000 -16.3110 -25.5359 -16.2350 7.6078 7.1250 -0.0000 -0.0000 2.1535 -47.8536 -0.1517
0.00 0.00 0.00 534.9180 49.4067 190.0730 0.0000 0.0000 0.0000 -39.6416 -24.0655 13.7895 0.0099 -0.6428 -1.7664 8.2927 12.9105 -58.9845 8.7116 -16.6185 -55.0874 0.0000 0.0000 0.0000 17.1001 25.4594 -25.9803 -0.0700 1.7067 -4.6958 -4.1425 -17.0767 -46.7424 -2.3817 -9.6196 27.7536 -16.7792 -3.6977 16.4824 10.4904 -7.2675 -12.5631 25.8613 1.2630 -20.9166 -2.8385 -1.3395 -9.4519 -5.3365 5.5414 44.9240 -0.5846 2.4981 18.8974 -0.0000 -0.0000 0.0000 -104.4607 22.6194 3.4296 14.0545 -22.8126 -2.8492 -0.0000 -0.0000 23.4055 28.4246 31.0728 15.6080 -7.1250 0.0000 -0.0000 -3.9544 64.3571 -1.8550 -0.0000 -0.0000 0.0000 50.0562 -14.6124 65.5543 -21.3579 32.2438 -6.2398 0.0000 -0.0000 -18.9389 -27.7180 -18.9454 9.6806 7.1250 -0.0000 -0.0000 0.5077 -51.1733 -0.0772
0.00 0.00 0.00 598.3010 76.9597 248.4330 0.0000 0.0000 0.0000 3.9398 -36.0390 -37.9785 0.5544 4.7697 13.2530 -0.3656 11.6452 -9.3385 12.9933 -18.7797 -69.1047 0.0000 0.0000 0.0000 49.1638 4.7892 14.4622 -0.1821 2.7486 -7.5795 -1.0486 -6.8321 -22.9572 -0.9258 6.1298 -17.1615 6.4537 1.2050 6.6127 5.7231 4.3919 -12.6476 1.9523 2.0676 -18.3263 -3.6198 -3.3717 -12.2729 -1.8571 -2.7847 26.9584 -0.3557 -1.6047 10.7255 -0.0000 -0.0000 0.0000 -89.8447 26.2973 3.2984 14.3964 -23.2986 -2.9831 -0.0000 -0.0000 18.1641 28.8246 31.1778 15.9020 -7.1250 0.0000 -0.0000 -3.5069 64.5789 -1.6629 -0.0000 -0.0000 0.0000 65.4110 -13.9727 71.8992 -22.9300 34.0122 -7.0991 0.0000 -0.0000 -9.5406 -22.4155 -15.7358 6.3830 7.1250 -0.0000 -0.0000 5.0271 -46.8680 -0.2323
0.00 0.00 0.00 710.4710 74.4604 357.8970 0.0000 0.0000 0.0000 -33.2412 -8.9308 27.5605 0.2243 3.0484 8.4136 1.1046 12.8785 -28.2830 12.3353 -18.5288 -67.0476 0.0000 0.0000 0.0000 29.8872 13.6212 -20.4768 -0.6412 -5.1229 14.2596 -0.3766 -10.0064 -19.2119 -0.0165 0.8289 -2.2782 -4.8526 -1.4894 7.4231 3.8336 -1.8541 -12.8641 7.5884 0.4389 -18.7228 7.0682 -0.1437 -14.4613 0.7280 -1.8095 34.9167 -1.1416 0.6286 14.3927 0.0000 -0.0000 0.0000 -89.3344 17.2750 43.5235 17.9701 -28.1189 -4.5351 -0.0000 -0.0000 8.3804 27.8188 32.3818 15.7799 -7.1250 0.0000 -0.0000 -5.5393 65.5423 -2.7527 0.0000 -0.0000 0.0000 72.8914 -33.8284 19.6136 -8.3798 14.1666 -1.0431 0.0000 -0.0000 -8.2914 -22.8147 -25.4839 10.2591 7.1250 -0.0000 -0.0000 7.6602 -57.1584 -2.2908
0.00 0.00 0.00 699.1630 74.4913 345.8300 0.0000 0.0000 0.0000 -20.6045 -1.4781 15.0246 2.3031 9.4708 27.2795 -0.6250 14.2149 -8.7565 12.0517 -18.4124 -66.1527 0.0000 0.0000 0.0000 35.7053 9.6547 -11.4276 -0.1955 -2.8474 7.8543 -0.6068 -8.5983 -20.2700 -0.0031 0.3610 -0.9919 -2.6516 -1.5883 8.0240 3.6686 -1.6562 -12.7832 6.1243 0.2115 -19.0848 4.4815 -1.5725 -12.6592 5.7198 -4.6502 33.2035 0.8684 -0.3368 13.3861 0.0000 -0.0000 0.0000 -88.0777 20.4318 46.6655 17.6055 -27.6491 -4.3646 -0.0000 -0.0000 11.6827 18.5679 29.4023 9.3646 -7.1250 0.0000 -0.0000 -14.4146 60.1300 -5.3875 0.0000 -0.0000 0.0000 74.0885 -35.3846 27.3599 -9.7416 16.3344 -1.4014 0.0000 -0.0000 -6.4199 -13.9725 -22.6333 5.4696 7.1250 -0.0000 -0.0000 15.4209 -52.5719 -2.9300
0.00 0.00 0.00 687.3550 72.7712 333.6610 0.0000 0.0000 0.0000 -10.9638 2.5262 1.4811 6.6725 15.0498 47.6246 -0.7834 15.5059 -7.2592 11.8952 -18.3460 -65.6564 0.0000 0.0000 0.0000 41.5638 6.6759 -5.8587 -0.0822 -1.8494 5.0895 -0.8360 -6.8495 -21.0738 -0.0335 1.1822 -3.2502 0.9747 -1.1860 8.6953 4.0577 -0.4141 -12.1616 4.2327 0.2817 -18.9005 3.3575 -2.4564 -12.9658 5.8674 -5.7299 32.8999 0.9481 -0.9515 13.3646 0.0000 0.0000 0.0000 -86.7054 19.9937 46.5996 17.5930 -27.6329 -4.3588 -0.0000 -0.0000 12.8811 19.9309 28.8738 9.9315 -7.1250 0.0000 -0.0000 -12.5838 59.9327 -4.6299 0.0000 0.0000 0.0000 72.2427 -34.4641 37.0404 -13.8887 22.5753 -2.7852 0.0000 -0.0000 -12.4676 -13.2910 -21.5604 4.9613 7.1250 -0.0000 -0.0000 15.6017 -51.4103 -2.5149
